# xmcd
#
# Track frame offsets: 
#        150
#        11812
#        19659
#        35573
#        48793
#        60783
#        72788
#        85675
#        96643
#        107761
#        117642
#        129368
#        145172
#        157376
#        169463
#        183821
#        193854
#        208920
#        219521
#        233641
#        250672
#
# Disc length: 3560 seconds
#
# Revision: 0
# Processed by: cddbd v1.5.2PL0 Copyright (c) Steve Scherf et al.
# Submitted via: ExactAudioCopy v1.0b3
#
DISCID=2c0de615
DTITLE=Uncle Walt's Band - Anthology
DYEAR=1900
DGENRE=Country
TTITLE0=Seat of Logig
TTITLE1=Dish Wiped Clean
TTITLE2=Ruby
TTITLE3=High Hill
TTITLE4=Aloha
TTITLE5=Don't You Think, I feel, It Too
TTITLE6=Deeper Than Love
TTITLE7=As The Crow Flies
TTITLE8=Bluebird
TTITLE9=Last One To Know
TTITLE10=Stay With The One
TTITLE11=So Long Baby
TTITLE12=Holding On
TTITLE13=Walking Angel
TTITLE14=Gimme Some Skin (Live at The Waterloo Ice House)
TTITLE15=Wateever Reason
TTITLE16=One Meadball (Live at The Waterloo Ice House)
TTITLE17=Shine On
TTITLE18=Getaway
TTITLE19=Sitting On Top Of The World (Live at The Waterloo Ice House)
TTITLE20=I'll Come Knockin' (Demo)
EXTD=
EXTT0=
EXTT1=
EXTT2=
EXTT3=
EXTT4=
EXTT5=
EXTT6=
EXTT7=
EXTT8=
EXTT9=
EXTT10=
EXTT11=
EXTT12=
EXTT13=
EXTT14=
EXTT15=
EXTT16=
EXTT17=
EXTT18=
EXTT19=
EXTT20=
PLAYORDER=
